<svg width="257" height="56" viewBox="0 0 257 56" fill="none" xmlns="http://www.w3.org/2000/svg">
<ellipse cx="19" cy="28.1176" rx="19" ry="18.1176" fill="url(#paint0_linear_3_6)"/>
<path d="M71.008 22.72C70.552 21.88 69.892 21.244 69.028 20.812C68.188 20.356 67.192 20.128 66.04 20.128C64.048 20.128 62.452 20.788 61.252 22.108C60.052 23.404 59.452 25.144 59.452 27.328C59.452 29.656 60.076 31.48 61.324 32.8C62.596 34.096 64.336 34.744 66.544 34.744C68.056 34.744 69.328 34.36 70.36 33.592C71.416 32.824 72.184 31.72 72.664 30.28H64.852V25.744H78.244V31.468C77.788 33.004 77.008 34.432 75.904 35.752C74.824 37.072 73.444 38.14 71.764 38.956C70.084 39.772 68.188 40.18 66.076 40.18C63.58 40.18 61.348 39.64 59.38 38.56C57.436 37.456 55.912 35.932 54.808 33.988C53.728 32.044 53.188 29.824 53.188 27.328C53.188 24.832 53.728 22.612 54.808 20.668C55.912 18.7 57.436 17.176 59.38 16.096C61.324 14.992 63.544 14.44 66.04 14.44C69.064 14.44 71.608 15.172 73.672 16.636C75.76 18.1 77.14 20.128 77.812 22.72H71.008ZM87.8099 23.26C88.5299 22.156 89.4299 21.292 90.5099 20.668C91.5899 20.02 92.7899 19.696 94.1099 19.696V26.212H92.4179C90.8819 26.212 89.7299 26.548 88.9619 27.22C88.1939 27.868 87.8099 29.02 87.8099 30.676V40H81.6539V19.912H87.8099V23.26ZM95.8283 29.92C95.8283 27.856 96.2123 26.044 96.9803 24.484C97.7723 22.924 98.8403 21.724 100.184 20.884C101.528 20.044 103.028 19.624 104.684 19.624C106.1 19.624 107.336 19.912 108.392 20.488C109.472 21.064 110.3 21.82 110.876 22.756V19.912H117.032V40H110.876V37.156C110.276 38.092 109.436 38.848 108.356 39.424C107.3 40 106.064 40.288 104.648 40.288C103.016 40.288 101.528 39.868 100.184 39.028C98.8403 38.164 97.7723 36.952 96.9803 35.392C96.2123 33.808 95.8283 31.984 95.8283 29.92ZM110.876 29.956C110.876 28.42 110.444 27.208 109.58 26.32C108.74 25.432 107.708 24.988 106.484 24.988C105.26 24.988 104.216 25.432 103.352 26.32C102.512 27.184 102.092 28.384 102.092 29.92C102.092 31.456 102.512 32.68 103.352 33.592C104.216 34.48 105.26 34.924 106.484 34.924C107.708 34.924 108.74 34.48 109.58 33.592C110.444 32.704 110.876 31.492 110.876 29.956ZM133.726 19.696C136.078 19.696 137.95 20.464 139.342 22C140.758 23.512 141.466 25.6 141.466 28.264V40H135.346V29.092C135.346 27.748 134.998 26.704 134.302 25.96C133.606 25.216 132.67 24.844 131.494 24.844C130.318 24.844 129.382 25.216 128.686 25.96C127.99 26.704 127.642 27.748 127.642 29.092V40H121.486V19.912H127.642V22.576C128.266 21.688 129.106 20.992 130.162 20.488C131.218 19.96 132.406 19.696 133.726 19.696ZM144.52 29.92C144.52 27.856 144.904 26.044 145.672 24.484C146.464 22.924 147.532 21.724 148.876 20.884C150.22 20.044 151.72 19.624 153.376 19.624C154.696 19.624 155.896 19.9 156.976 20.452C158.08 21.004 158.944 21.748 159.568 22.684V13.36H165.724V40H159.568V37.12C158.992 38.08 158.164 38.848 157.084 39.424C156.028 40 154.792 40.288 153.376 40.288C151.72 40.288 150.22 39.868 148.876 39.028C147.532 38.164 146.464 36.952 145.672 35.392C144.904 33.808 144.52 31.984 144.52 29.92ZM159.568 29.956C159.568 28.42 159.136 27.208 158.272 26.32C157.432 25.432 156.4 24.988 155.176 24.988C153.952 24.988 152.908 25.432 152.044 26.32C151.204 27.184 150.784 28.384 150.784 29.92C150.784 31.456 151.204 32.68 152.044 33.592C152.908 34.48 153.952 34.924 155.176 34.924C156.4 34.924 157.432 34.48 158.272 33.592C159.136 32.704 159.568 31.492 159.568 29.956ZM169.133 27.328C169.133 24.832 169.673 22.612 170.753 20.668C171.833 18.7 173.333 17.176 175.253 16.096C177.197 14.992 179.393 14.44 181.841 14.44C184.841 14.44 187.409 15.232 189.545 16.816C191.681 18.4 193.109 20.56 193.829 23.296H187.061C186.557 22.24 185.837 21.436 184.901 20.884C183.989 20.332 182.945 20.056 181.769 20.056C179.873 20.056 178.337 20.716 177.161 22.036C175.985 23.356 175.397 25.12 175.397 27.328C175.397 29.536 175.985 31.3 177.161 32.62C178.337 33.94 179.873 34.6 181.769 34.6C182.945 34.6 183.989 34.324 184.901 33.772C185.837 33.22 186.557 32.416 187.061 31.36H193.829C193.109 34.096 191.681 36.256 189.545 37.84C187.409 39.4 184.841 40.18 181.841 40.18C179.393 40.18 177.197 39.64 175.253 38.56C173.333 37.456 171.833 35.932 170.753 33.988C169.673 32.044 169.133 29.824 169.133 27.328ZM200.695 17.824C199.615 17.824 198.727 17.512 198.031 16.888C197.359 16.24 197.023 15.448 197.023 14.512C197.023 13.552 197.359 12.76 198.031 12.136C198.727 11.488 199.615 11.164 200.695 11.164C201.751 11.164 202.615 11.488 203.287 12.136C203.983 12.76 204.331 13.552 204.331 14.512C204.331 15.448 203.983 16.24 203.287 16.888C202.615 17.512 201.751 17.824 200.695 17.824ZM203.755 19.912V40H197.599V19.912H203.755ZM219.412 34.78V40H216.28C214.048 40 212.308 39.46 211.06 38.38C209.812 37.276 209.188 35.488 209.188 33.016V25.024H206.74V19.912H209.188V15.016H215.344V19.912H219.376V25.024H215.344V33.088C215.344 33.688 215.488 34.12 215.776 34.384C216.064 34.648 216.544 34.78 217.216 34.78H219.412ZM243.361 19.912L230.761 49.54H224.137L228.745 39.316L220.573 19.912H227.449L232.093 32.476L236.701 19.912H243.361Z" fill="#31D8BA"/>
<rect x="54" y="42" width="189" height="2" fill="#31D8BA"/>
<defs>
<linearGradient id="paint0_linear_3_6" x1="19" y1="10" x2="19" y2="46.2353" gradientUnits="userSpaceOnUse">
<stop stop-color="#31BD61"/>
<stop offset="1" stop-color="#C4C4C4" stop-opacity="0"/>
</linearGradient>
</defs>
</svg>
