<svg width="20" height="15" viewBox="0 0 20 15" fill="none" xmlns="http://www.w3.org/2000/svg">
<path d="M20 1.77927C19.2645 2.07995 18.4744 2.28311 17.6438 2.37493C18.5008 1.90181 19.142 1.15718 19.4477 0.279967C18.6425 0.721218 17.7612 1.03181 16.8422 1.19824C16.2242 0.58947 15.4057 0.185967 14.5136 0.050377C13.6216 -0.0852125 12.706 0.0546982 11.909 0.448387C11.1119 0.842076 10.4781 1.46752 10.1058 2.22761C9.73358 2.9877 9.64374 3.83991 9.85026 4.65193C8.2187 4.57635 6.62259 4.18511 5.16553 3.5036C3.70847 2.82209 2.42301 1.86554 1.39258 0.696035C1.04025 1.25675 0.837664 1.90686 0.837664 2.59922C0.837271 3.22251 1.00364 3.83624 1.32201 4.38598C1.64038 4.93572 2.10091 5.40446 2.66273 5.75061C2.01117 5.73148 1.37397 5.56905 0.804193 5.27684V5.3256C0.804127 6.19978 1.13189 7.04707 1.73186 7.72368C2.33184 8.40029 3.16707 8.86456 4.09583 9.03771C3.4914 9.18863 2.85769 9.21086 2.24258 9.10272C2.50462 9.8549 3.01506 10.5127 3.70243 10.9839C4.3898 11.4551 5.21969 11.7163 6.07593 11.7308C4.62242 12.7835 2.82735 13.3545 0.979477 13.352C0.652146 13.3521 0.325091 13.3344 0 13.2992C1.87569 14.4118 4.05914 15.0023 6.28909 15C13.8378 15 17.9644 9.23193 17.9644 4.22936C17.9644 4.06683 17.96 3.90268 17.9521 3.74016C18.7548 3.20461 19.4476 2.54144 19.9982 1.78171L20 1.77927V1.77927Z" fill="white"/>
</svg>
